<?xml version="1.0" encoding="utf-8"?>
<!-- Generator: Adobe Illustrator 27.5.0, SVG Export Plug-In . SVG Version: 6.00 Build 0)  -->
<svg version="1.1" xmlns="http://www.w3.org/2000/svg" xmlns:xlink="http://www.w3.org/1999/xlink" x="0px" y="0px"
	 viewBox="0 0 500 500" style="enable-background:new 0 0 500 500;" xml:space="preserve">
<g id="BACKGROUND">
	<rect style="fill:#FFFFFF;" width="500" height="500"/>
	<rect x="-0.5" y="-1" style="fill:#B975F9;" width="501.5" height="501.5"/>
</g>
<g id="OBJECTS">
	<g>
		<rect x="56.535" y="184.573" style="fill:#1A1A1A;" width="20.426" height="8.754"/>
		<circle style="fill:#E8A034;" cx="55.951" cy="189.825" r="7.587"/>
	</g>
	<g>
		<path style="fill:#1A1A1A;" d="M197.436,216.087H85.459c-6.6,0-12-5.4-12-12V92.11c0-6.6,5.4-12,12-12h111.977c6.6,0,12,5.4,12,12
			v111.977C209.436,210.687,204.036,216.087,197.436,216.087z"/>
		<path style="fill:#3C4145;" d="M187.514,206.166H95.38c-6.6,0-12-5.4-12-12v-92.134c0-6.6,5.4-12,12-12h92.134c6.6,0,12,5.4,12,12
			v92.134C199.514,200.766,194.114,206.166,187.514,206.166z"/>
		<g>
			<rect x="55.951" y="157.728" style="fill:#1A1A1A;" width="20.426" height="8.754"/>
			<circle style="fill:#E8A034;" cx="55.368" cy="162.98" r="7.587"/>
		</g>
		<g>
			<rect x="55.368" y="132.633" style="fill:#1A1A1A;" width="20.426" height="8.754"/>
			<circle style="fill:#E8A034;" cx="54.784" cy="137.886" r="7.587"/>
		</g>
		<g>
			<rect x="54.2" y="108.706" style="fill:#1A1A1A;" width="20.426" height="8.754"/>
			<circle style="fill:#E8A034;" cx="53.617" cy="113.959" r="7.587"/>
		</g>
		<g>
			<rect x="54.784" y="85.946" style="fill:#1A1A1A;" width="20.426" height="8.754"/>
			
				<ellipse transform="matrix(0.1606 -0.987 0.987 0.1606 -44.5175 130.0527)" style="fill:#E8A034;" cx="54.2" cy="91.199" rx="7.587" ry="7.587"/>
		</g>
		<g>
			
				<rect x="205.934" y="185.74" transform="matrix(-1 -1.224647e-16 1.224647e-16 -1 432.2937 380.2344)" style="fill:#1A1A1A;" width="20.426" height="8.754"/>
			<circle style="fill:#E8A034;" cx="226.943" cy="190.993" r="7.587"/>
		</g>
		<g>
			
				<rect x="206.518" y="158.895" transform="matrix(-1 -1.224647e-16 1.224647e-16 -1 433.4609 326.5441)" style="fill:#1A1A1A;" width="20.426" height="8.754"/>
			<circle style="fill:#E8A034;" cx="227.527" cy="164.147" r="7.587"/>
		</g>
		<g>
			
				<rect x="207.101" y="133.801" transform="matrix(-1 -1.224647e-16 1.224647e-16 -1 434.6281 276.3553)" style="fill:#1A1A1A;" width="20.426" height="8.754"/>
			<circle style="fill:#E8A034;" cx="228.11" cy="139.053" r="7.587"/>
		</g>
		<g>
			
				<rect x="208.268" y="109.873" transform="matrix(-1 -1.224647e-16 1.224647e-16 -1 436.9624 228.5008)" style="fill:#1A1A1A;" width="20.426" height="8.754"/>
			<circle style="fill:#E8A034;" cx="229.278" cy="115.126" r="7.587"/>
		</g>
		<g>
			
				<rect x="207.685" y="87.113" transform="matrix(-1 -1.224647e-16 1.224647e-16 -1 435.7953 182.9807)" style="fill:#1A1A1A;" width="20.426" height="8.754"/>
			
				<ellipse transform="matrix(0.773 -0.6344 0.6344 0.773 -6.688 166.0385)" style="fill:#E8A034;" cx="228.694" cy="92.366" rx="7.587" ry="7.587"/>
		</g>
		<g>
			
				<rect x="179.672" y="68.438" transform="matrix(-1.836970e-16 1 -1 -1.836970e-16 262.7007 -117.0698)" style="fill:#1A1A1A;" width="20.426" height="8.754"/>
			<path style="fill:#E8A034;" d="M190.761,69.606c4.19,0,7.587-3.397,7.587-7.587s-3.397-7.587-7.587-7.587
				c-4.19,0-7.587,3.397-7.587,7.587S186.571,69.606,190.761,69.606z"/>
		</g>
		<g>
			
				<rect x="152.827" y="67.855" transform="matrix(-1.836970e-16 1 -1 -1.836970e-16 235.2719 -90.8082)" style="fill:#1A1A1A;" width="20.426" height="8.754"/>
			
				<ellipse transform="matrix(0.7071 -0.7071 0.7071 0.7071 4.5683 133.8998)" style="fill:#E8A034;" cx="163.915" cy="61.435" rx="7.587" ry="7.587"/>
		</g>
		<g>
			
				<rect x="127.733" y="67.271" transform="matrix(-1.836970e-16 1 -1 -1.836970e-16 209.5939 -66.2974)" style="fill:#1A1A1A;" width="20.426" height="8.754"/>
			
				<ellipse transform="matrix(0.7071 -0.7071 0.7071 0.7071 -2.369 115.9844)" style="fill:#E8A034;" cx="138.821" cy="60.852" rx="7.587" ry="7.587"/>
		</g>
		<g>
			
				<rect x="103.806" y="66.104" transform="matrix(-1.836970e-16 1 -1 -1.836970e-16 184.4995 -43.5373)" style="fill:#1A1A1A;" width="20.426" height="8.754"/>
			
				<ellipse transform="matrix(0.7071 -0.7071 0.7071 0.7071 -8.5518 98.7234)" style="fill:#E8A034;" cx="114.894" cy="59.685" rx="7.587" ry="7.587"/>
		</g>
		<g>
			
				<rect x="81.046" y="66.688" transform="matrix(-1.836970e-16 1 -1 -1.836970e-16 162.3231 -20.1938)" style="fill:#1A1A1A;" width="20.426" height="8.754"/>
			<circle style="fill:#E8A034;" cx="92.134" cy="60.268" r="7.587"/>
		</g>
		<g>
			
				<rect x="83.38" y="217.838" transform="matrix(6.123234e-17 -1 1 6.123234e-17 -128.6219 315.8074)" style="fill:#1A1A1A;" width="20.426" height="8.754"/>
			<circle style="fill:#E8A034;" cx="92.717" cy="233.011" r="7.587"/>
		</g>
		<g>
			
				<rect x="110.225" y="218.421" transform="matrix(6.123234e-17 -1 1 6.123234e-17 -102.3603 343.2362)" style="fill:#1A1A1A;" width="20.426" height="8.754"/>
			<circle style="fill:#E8A034;" cx="119.563" cy="233.595" r="7.587"/>
		</g>
		<g>
			
				<rect x="135.319" y="219.005" transform="matrix(6.123234e-17 -1 1 6.123234e-17 -77.8495 368.9142)" style="fill:#1A1A1A;" width="20.426" height="8.754"/>
			<circle style="fill:#E8A034;" cx="144.657" cy="234.178" r="7.587"/>
		</g>
		<g>
			
				<rect x="159.247" y="220.172" transform="matrix(6.123234e-17 -1 1 6.123234e-17 -55.0895 394.0086)" style="fill:#1A1A1A;" width="20.426" height="8.754"/>
			<circle style="fill:#E8A034;" cx="168.584" cy="235.346" r="7.587"/>
		</g>
		<g>
			
				<rect x="182.007" y="219.589" transform="matrix(6.123234e-17 -1 1 6.123234e-17 -31.7458 416.1851)" style="fill:#1A1A1A;" width="20.426" height="8.754"/>
			
				<ellipse transform="matrix(0.9871 -0.1598 0.1598 0.9871 -35.0571 33.5948)" style="fill:#E8A034;" cx="191.344" cy="234.762" rx="7.587" ry="7.587"/>
		</g>
	</g>
	<g>
		<path style="fill:#1A1A1A;" d="M195.405,413.012H83.429c-6.6,0-12-5.4-12-12V289.035c0-6.6,5.4-12,12-12h111.977
			c6.6,0,12,5.4,12,12v111.977C207.405,407.612,202.005,413.012,195.405,413.012z"/>
		<path style="fill:#E8A034;" d="M185.484,403.091H93.35c-6.6,0-12-5.4-12-12v-92.135c0-6.6,5.4-12,12-12h92.135c6.6,0,12,5.4,12,12
			v92.135C197.484,397.691,192.084,403.091,185.484,403.091z"/>
		<g>
			<rect x="53.921" y="354.652" style="fill:#1A1A1A;" width="20.426" height="8.754"/>
			
				<ellipse transform="matrix(0.7071 -0.7071 0.7071 0.7071 -238.869 143.129)" style="fill:#E8C48E;" cx="53.337" cy="359.905" rx="7.587" ry="7.587"/>
		</g>
		<g>
			<rect x="53.337" y="329.558" style="fill:#1A1A1A;" width="20.426" height="8.754"/>
			
				<ellipse transform="matrix(0.2305 -0.9731 0.9731 0.2305 -285.2006 308.9691)" style="fill:#E8C48E;" cx="52.754" cy="334.81" rx="7.587" ry="7.587"/>
		</g>
		<g>
			<rect x="52.17" y="305.631" style="fill:#1A1A1A;" width="20.426" height="8.754"/>
			
				<ellipse transform="matrix(0.9071 -0.421 0.421 0.9071 -126.0789 50.6055)" style="fill:#E8C48E;" cx="51.587" cy="310.883" rx="7.587" ry="7.587"/>
		</g>
		<g>
			<rect x="52.754" y="282.871" style="fill:#1A1A1A;" width="20.426" height="8.754"/>
			<circle style="fill:#E8C48E;" cx="52.17" cy="288.123" r="7.587"/>
		</g>
		<g>
			
				<rect x="203.904" y="382.665" transform="matrix(-1 -1.224647e-16 1.224647e-16 -1 428.2334 774.0837)" style="fill:#1A1A1A;" width="20.426" height="8.754"/>
			<circle style="fill:#E8C48E;" cx="224.913" cy="387.917" r="7.587"/>
		</g>
		<g>
			
				<rect x="204.487" y="355.82" transform="matrix(-1 -1.224647e-16 1.224647e-16 -1 429.4005 720.3933)" style="fill:#1A1A1A;" width="20.426" height="8.754"/>
			
				<ellipse transform="matrix(0.407 -0.9134 0.9134 0.407 -196.0933 420.0947)" style="fill:#E8C48E;" cx="225.497" cy="361.072" rx="7.587" ry="7.587"/>
		</g>
		<g>
			
				<rect x="205.071" y="330.725" transform="matrix(-1 -1.224647e-16 1.224647e-16 -1 430.5677 670.2045)" style="fill:#1A1A1A;" width="20.426" height="8.754"/>
			
				<ellipse transform="matrix(0.325 -0.9457 0.9457 0.325 -165.1348 440.5911)" style="fill:#E8C48E;" cx="226.08" cy="335.978" rx="7.587" ry="7.587"/>
		</g>
		<g>
			
				<rect x="206.238" y="306.798" transform="matrix(-1 -1.224647e-16 1.224647e-16 -1 432.9021 622.3501)" style="fill:#1A1A1A;" width="20.426" height="8.754"/>
			<circle style="fill:#E8C48E;" cx="227.247" cy="312.05" r="7.587"/>
		</g>
		<g>
			
				<rect x="205.655" y="284.038" transform="matrix(-1 -1.224647e-16 1.224647e-16 -1 431.7349 576.83)" style="fill:#1A1A1A;" width="20.426" height="8.754"/>
			<circle style="fill:#E8C48E;" cx="226.664" cy="289.29" r="7.587"/>
		</g>
		<g>
			
				<rect x="177.642" y="265.363" transform="matrix(-1.836970e-16 1 -1 -1.836970e-16 457.5952 81.885)" style="fill:#1A1A1A;" width="20.426" height="8.754"/>
			<circle style="fill:#E8C48E;" cx="188.73" cy="258.944" r="7.587"/>
		</g>
		<g>
			
				<rect x="150.797" y="264.78" transform="matrix(-1.836970e-16 1 -1 -1.836970e-16 430.1664 108.1466)" style="fill:#1A1A1A;" width="20.426" height="8.754"/>
			
				<ellipse transform="matrix(0.9995 -0.0326 0.0326 0.9995 -8.3458 5.421)" style="fill:#E8C48E;" cx="161.885" cy="258.36" rx="7.587" ry="7.587"/>
		</g>
		<g>
			
				<rect x="125.703" y="264.196" transform="matrix(-1.836970e-16 1 -1 -1.836970e-16 404.4884 132.6574)" style="fill:#1A1A1A;" width="20.426" height="8.754"/>
			<circle style="fill:#E8C48E;" cx="136.791" cy="257.776" r="7.587"/>
		</g>
		<g>
			
				<rect x="101.775" y="263.029" transform="matrix(-1.836970e-16 1 -1 -1.836970e-16 379.394 155.4174)" style="fill:#1A1A1A;" width="20.426" height="8.754"/>
			<circle style="fill:#E8C48E;" cx="112.864" cy="256.609" r="7.587"/>
		</g>
		<g>
			
				<rect x="79.015" y="263.612" transform="matrix(-1.836970e-16 1 -1 -1.836970e-16 357.2175 178.7611)" style="fill:#1A1A1A;" width="20.426" height="8.754"/>
			
				<ellipse transform="matrix(0.9889 -0.1484 0.1484 0.9889 -37.1613 16.2147)" style="fill:#E8C48E;" cx="90.104" cy="257.193" rx="7.587" ry="7.587"/>
		</g>
		<g>
			
				<rect x="81.35" y="414.762" transform="matrix(6.123234e-17 -1 1 6.123234e-17 -327.5767 510.702)" style="fill:#1A1A1A;" width="20.426" height="8.754"/>
			
				<ellipse transform="matrix(0.9734 -0.229 0.229 0.9734 -96.0496 32.1943)" style="fill:#E8C48E;" cx="90.687" cy="429.936" rx="7.587" ry="7.587"/>
		</g>
		<g>
			
				<rect x="108.195" y="415.346" transform="matrix(6.123234e-17 -1 1 6.123234e-17 -301.3151 538.1307)" style="fill:#1A1A1A;" width="20.426" height="8.754"/>
			<circle style="fill:#E8C48E;" cx="117.532" cy="430.519" r="7.587"/>
		</g>
		<g>
			
				<rect x="133.289" y="415.93" transform="matrix(6.123234e-17 -1 1 6.123234e-17 -276.8043 563.8087)" style="fill:#1A1A1A;" width="20.426" height="8.754"/>
			<circle style="fill:#E8C48E;" cx="142.627" cy="431.103" r="7.587"/>
		</g>
		<g>
			
				<rect x="157.217" y="417.097" transform="matrix(6.123234e-17 -1 1 6.123234e-17 -254.0442 588.9031)" style="fill:#1A1A1A;" width="20.426" height="8.754"/>
			
				<ellipse transform="matrix(0.9897 -0.1429 0.1429 0.9897 -60.0777 28.2456)" style="fill:#E8C48E;" cx="166.554" cy="432.27" rx="7.587" ry="7.587"/>
		</g>
		<g>
			
				<rect x="179.977" y="416.513" transform="matrix(6.123234e-17 -1 1 6.123234e-17 -230.7006 611.0795)" style="fill:#1A1A1A;" width="20.426" height="8.754"/>
			<circle style="fill:#E8C48E;" cx="189.314" cy="431.686" r="7.587"/>
		</g>
	</g>
	<g>
		<path style="fill:#E8A034;" d="M139.405,188.646V107.15c-8.269,0-21.596,3.819-17.937,14.705
			c-7.98,0.677-15.329,3.135-17.632,11.931c-1.028,3.926-0.795,8.275,0.538,12.078c1.599,4.562,1.226,2.693-1.541,6.26
			c-12.095,15.591-1.944,36.951,14.395,41.785c2.429,0.719,8.738,0.868,11.088,0c0.525-0.194,4.837-2.755,4.162-3.054
			C134.58,191.786,138.591,191.925,139.405,188.646z"/>
		<polyline style="fill:none;stroke:#3C4145;stroke-width:1.7508;stroke-miterlimit:10;" points="100.304,139.637 120.73,139.637 
			120.73,177.57 132.985,177.57 		"/>
		<polyline style="fill:none;stroke:#3C4145;stroke-width:1.7508;stroke-miterlimit:10;" points="104.097,128.84 132.11,128.84 
			132.11,114.25 		"/>
		<polyline style="fill:none;stroke:#3C4145;stroke-width:1.7508;stroke-miterlimit:10;" points="97.386,167.454 111.1,167.454 
			111.1,184.865 121.022,184.865 		"/>
		<polyline style="fill:none;stroke:#3C4145;stroke-width:1.7508;stroke-miterlimit:10;" points="97.094,159.187 113.435,159.187 
			113.435,147.515 		"/>
		<path style="fill:#E8A034;stroke:#3D3D3D;stroke-width:2.3344;stroke-miterlimit:10;" d="M126.274,139.928
			c0,1.934-1.568,3.501-3.502,3.501c-1.934,0-3.502-1.568-3.502-3.501c0-1.934,1.568-3.502,3.502-3.502
			C124.706,136.427,126.274,137.995,126.274,139.928z"/>
		<path style="fill:#E8A034;stroke:#3D3D3D;stroke-width:2.3344;stroke-miterlimit:10;" d="M135.903,177.57
			c0,1.934-1.568,3.501-3.501,3.501c-1.934,0-3.502-1.568-3.502-3.501c0-1.934,1.568-3.502,3.502-3.502
			C134.335,174.068,135.903,175.636,135.903,177.57z"/>
		<path style="fill:#E8A034;stroke:#3D3D3D;stroke-width:2.3344;stroke-miterlimit:10;" d="M117.228,148.974
			c0,1.934-1.568,3.501-3.502,3.501c-1.934,0-3.502-1.568-3.502-3.501c0-1.934,1.568-3.502,3.502-3.502
			C115.66,145.473,117.228,147.04,117.228,148.974z"/>
		<path style="fill:#E8A034;stroke:#3D3D3D;stroke-width:2.3344;stroke-miterlimit:10;" d="M124.815,162.397
			c0,1.934-1.568,3.502-3.502,3.502c-1.934,0-3.502-1.568-3.502-3.502c0-1.934,1.568-3.502,3.502-3.502
			C123.247,158.895,124.815,160.463,124.815,162.397z"/>
		<path style="fill:#E8A034;stroke:#3D3D3D;stroke-width:2.3344;stroke-miterlimit:10;" d="M124.231,183.99
			c0,1.934-1.568,3.501-3.502,3.501c-1.934,0-3.502-1.568-3.502-3.501c0-1.934,1.568-3.501,3.502-3.501
			C122.664,180.488,124.231,182.056,124.231,183.99z"/>
		<path style="fill:#E8A034;stroke:#3D3D3D;stroke-width:2.3344;stroke-miterlimit:10;" d="M134.152,129.132
			c0,1.934-1.568,3.501-3.502,3.501c-1.934,0-3.501-1.568-3.501-3.501c0-1.934,1.568-3.502,3.501-3.502
			C132.585,125.63,134.152,127.198,134.152,129.132z"/>
		<path style="fill:#E8A034;stroke:#3D3D3D;stroke-width:2.3344;stroke-miterlimit:10;" d="M135.903,113.375
			c0,1.934-1.568,3.502-3.501,3.502c-1.934,0-3.502-1.568-3.502-3.502c0-1.934,1.568-3.502,3.502-3.502
			C134.335,109.873,135.903,111.441,135.903,113.375z"/>
	</g>
	<g>
		<path style="fill:#E8D7BE;" d="M144.949,189.23v-81.496c8.269,0,21.596,3.819,17.937,14.705
			c7.98,0.677,15.329,3.135,17.632,11.931c1.028,3.926,0.795,8.275-0.538,12.078c-1.6,4.562-1.226,2.693,1.541,6.26
			c12.095,15.591,1.944,36.951-14.395,41.785c-2.429,0.719-8.738,0.868-11.088,0c-0.525-0.194-4.837-2.755-4.162-3.054
			C149.774,192.37,145.762,192.508,144.949,189.23z"/>
		<polyline style="fill:none;stroke:#3C4145;stroke-width:1.7508;stroke-miterlimit:10;" points="184.049,140.22 163.624,140.22 
			163.624,178.154 151.368,178.154 		"/>
		<polyline style="fill:none;stroke:#3C4145;stroke-width:1.7508;stroke-miterlimit:10;" points="180.256,129.424 152.244,129.424 
			152.244,114.834 		"/>
		<polyline style="fill:none;stroke:#3C4145;stroke-width:1.7508;stroke-miterlimit:10;" points="186.967,168.038 173.253,168.038 
			173.253,185.449 163.332,185.449 		"/>
		<polyline style="fill:none;stroke:#3C4145;stroke-width:1.7508;stroke-miterlimit:10;" points="187.259,159.77 170.919,159.77 
			170.919,148.099 		"/>
		<path style="fill:#E8D7BE;stroke:#3D3D3D;stroke-width:2.3344;stroke-miterlimit:10;" d="M158.08,140.512
			c0,1.934,1.568,3.502,3.501,3.502c1.934,0,3.502-1.568,3.502-3.502c0-1.934-1.568-3.502-3.502-3.502
			C159.647,137.01,158.08,138.578,158.08,140.512z"/>
		<path style="fill:#E8D7BE;stroke:#3D3D3D;stroke-width:2.3344;stroke-miterlimit:10;" d="M148.45,178.154
			c0,1.934,1.568,3.502,3.502,3.502c1.934,0,3.502-1.568,3.502-3.502c0-1.934-1.568-3.502-3.502-3.502
			C150.018,174.652,148.45,176.22,148.45,178.154z"/>
		<path style="fill:#E8D7BE;stroke:#3D3D3D;stroke-width:2.3344;stroke-miterlimit:10;" d="M167.125,149.558
			c0,1.934,1.568,3.502,3.502,3.502c1.934,0,3.502-1.568,3.502-3.502c0-1.934-1.568-3.501-3.502-3.501
			C168.693,146.056,167.125,147.624,167.125,149.558z"/>
		<path style="fill:#E8D7BE;stroke:#3D3D3D;stroke-width:2.3344;stroke-miterlimit:10;" d="M159.538,162.98
			c0,1.934,1.568,3.502,3.502,3.502c1.934,0,3.502-1.568,3.502-3.502c0-1.934-1.568-3.501-3.502-3.501
			C161.106,159.479,159.538,161.046,159.538,162.98z"/>
		<path style="fill:#E8D7BE;stroke:#3D3D3D;stroke-width:2.3344;stroke-miterlimit:10;" d="M160.122,184.573
			c0,1.934,1.568,3.501,3.502,3.501c1.934,0,3.502-1.568,3.502-3.501c0-1.934-1.568-3.502-3.502-3.502
			C161.69,181.072,160.122,182.639,160.122,184.573z"/>
		<path style="fill:#E8D7BE;stroke:#3D3D3D;stroke-width:2.3344;stroke-miterlimit:10;" d="M150.201,129.716
			c0,1.934,1.568,3.501,3.501,3.501c1.934,0,3.502-1.568,3.502-3.501c0-1.934-1.568-3.502-3.502-3.502
			C151.769,126.214,150.201,127.782,150.201,129.716z"/>
		<path style="fill:#E8D7BE;stroke:#3D3D3D;stroke-width:2.3344;stroke-miterlimit:10;" d="M148.45,113.959
			c0,1.934,1.568,3.502,3.502,3.502c1.934,0,3.502-1.568,3.502-3.502c0-1.934-1.568-3.502-3.502-3.502
			C150.018,110.457,148.45,112.025,148.45,113.959z"/>
	</g>
	<g>
		<g>
			<rect x="266.655" y="183.558" style="fill:#1A1A1A;" width="20.426" height="8.754"/>
			<circle style="fill:#E8A034;" cx="266.072" cy="188.81" r="7.587"/>
		</g>
		<g>
			<path style="fill:#1A1A1A;" d="M407.556,215.072H295.579c-6.6,0-12-5.4-12-12V91.095c0-6.6,5.4-12,12-12h111.977
				c6.6,0,12,5.4,12,12v111.977C419.556,209.672,414.156,215.072,407.556,215.072z"/>
			<path style="fill:#3C4145;" d="M397.635,205.151h-92.135c-6.6,0-12-5.4-12-12v-92.135c0-6.6,5.4-12,12-12h92.135
				c6.6,0,12,5.4,12,12v92.135C409.635,199.751,404.235,205.151,397.635,205.151z"/>
			<g>
				<rect x="266.072" y="156.713" style="fill:#1A1A1A;" width="20.426" height="8.754"/>
				
					<ellipse transform="matrix(0.1606 -0.987 0.987 0.1606 62.9971 398.0034)" style="fill:#E8A034;" cx="265.488" cy="161.965" rx="7.587" ry="7.587"/>
			</g>
			<g>
				<rect x="265.488" y="131.618" style="fill:#1A1A1A;" width="20.426" height="8.754"/>
				
					<ellipse transform="matrix(0.1606 -0.987 0.987 0.1606 87.276 376.3622)" style="fill:#E8A034;" cx="264.905" cy="136.871" rx="7.587" ry="7.587"/>
			</g>
			<g>
				<rect x="264.321" y="107.691" style="fill:#1A1A1A;" width="20.426" height="8.754"/>
				
					<ellipse transform="matrix(0.229 -0.9734 0.9734 0.229 93.3975 343.8071)" style="fill:#E8A034;" cx="263.737" cy="112.944" rx="7.587" ry="7.587"/>
			</g>
			<g>
				<rect x="264.905" y="84.931" style="fill:#1A1A1A;" width="20.426" height="8.754"/>
				<circle style="fill:#E8A034;" cx="264.321" cy="90.184" r="7.587"/>
			</g>
			<g>
				
					<rect x="416.055" y="184.725" transform="matrix(-1 -1.224647e-16 1.224647e-16 -1 852.5349 378.2043)" style="fill:#1A1A1A;" width="20.426" height="8.754"/>
				<circle style="fill:#E8A034;" cx="437.064" cy="189.977" r="7.587"/>
			</g>
			<g>
				
					<rect x="416.638" y="157.88" transform="matrix(-1 -1.224647e-16 1.224647e-16 -1 853.7021 324.5139)" style="fill:#1A1A1A;" width="20.426" height="8.754"/>
				
					<ellipse transform="matrix(0.3845 -0.9231 0.9231 0.3845 118.7955 504.4253)" style="fill:#E8A034;" cx="437.647" cy="163.132" rx="7.587" ry="7.587"/>
			</g>
			<g>
				
					<rect x="417.222" y="132.786" transform="matrix(-1 -1.224647e-16 1.224647e-16 -1 854.8693 274.3251)" style="fill:#1A1A1A;" width="20.426" height="8.754"/>
				
					<ellipse transform="matrix(0.9734 -0.229 0.229 0.9734 -19.9656 104.0267)" style="fill:#E8A034;" cx="438.231" cy="138.038" rx="7.587" ry="7.587"/>
			</g>
			<g>
				
					<rect x="418.389" y="108.858" transform="matrix(-1 -1.224647e-16 1.224647e-16 -1 857.2037 226.4707)" style="fill:#1A1A1A;" width="20.426" height="8.754"/>
				<circle style="fill:#E8A034;" cx="439.398" cy="114.111" r="7.587"/>
			</g>
			<g>
				
					<rect x="417.805" y="86.098" transform="matrix(-1 -1.224647e-16 1.224647e-16 -1 856.0365 180.9506)" style="fill:#1A1A1A;" width="20.426" height="8.754"/>
				<circle style="fill:#E8A034;" cx="438.815" cy="91.351" r="7.587"/>
			</g>
			<g>
				
					<rect x="389.793" y="67.423" transform="matrix(-1.836970e-16 1 -1 -1.836970e-16 471.8062 -328.2055)" style="fill:#1A1A1A;" width="20.426" height="8.754"/>
				
					<ellipse transform="matrix(0.7071 -0.7071 0.7071 0.7071 74.2791 301.3335)" style="fill:#E8A034;" cx="400.881" cy="61.004" rx="7.587" ry="7.587"/>
			</g>
			<g>
				
					<rect x="362.948" y="66.84" transform="matrix(-1.836970e-16 1 -1 -1.836970e-16 444.3775 -301.9439)" style="fill:#1A1A1A;" width="20.426" height="8.754"/>
				<circle style="fill:#E8A034;" cx="374.036" cy="60.42" r="7.587"/>
			</g>
			<g>
				
					<rect x="337.853" y="66.256" transform="matrix(-1.836970e-16 1 -1 -1.836970e-16 418.6995 -277.4331)" style="fill:#1A1A1A;" width="20.426" height="8.754"/>
				<circle style="fill:#E8A034;" cx="348.942" cy="59.837" r="7.587"/>
			</g>
			<g>
				
					<rect x="313.926" y="65.089" transform="matrix(-1.836970e-16 1 -1 -1.836970e-16 393.6051 -254.673)" style="fill:#1A1A1A;" width="20.426" height="8.754"/>
				
					<ellipse transform="matrix(0.9871 -0.1598 0.1598 0.9871 -5.1988 52.693)" style="fill:#E8A034;" cx="325.014" cy="58.67" rx="7.587" ry="7.587"/>
			</g>
			<g>
				
					<rect x="291.166" y="65.673" transform="matrix(-1.836970e-16 1 -1 -1.836970e-16 371.4286 -231.3294)" style="fill:#1A1A1A;" width="20.426" height="8.754"/>
				<circle style="fill:#E8A034;" cx="302.254" cy="59.253" r="7.587"/>
			</g>
			<g>
				
					<rect x="293.501" y="216.823" transform="matrix(6.123234e-17 -1 1 6.123234e-17 82.5138 524.913)" style="fill:#1A1A1A;" width="20.426" height="8.754"/>
				
					<ellipse transform="matrix(0.9957 -0.0925 0.0925 0.9957 -20.1562 28.9992)" style="fill:#E8A034;" cx="302.838" cy="231.996" rx="7.587" ry="7.587"/>
			</g>
			<g>
				
					<rect x="320.346" y="217.406" transform="matrix(6.123234e-17 -1 1 6.123234e-17 108.7753 552.3417)" style="fill:#1A1A1A;" width="20.426" height="8.754"/>
				<circle style="fill:#E8A034;" cx="329.683" cy="232.58" r="7.587"/>
			</g>
			<g>
				
					<rect x="345.44" y="217.99" transform="matrix(6.123234e-17 -1 1 6.123234e-17 133.2861 578.0197)" style="fill:#1A1A1A;" width="20.426" height="8.754"/>
				<circle style="fill:#E8A034;" cx="354.778" cy="233.163" r="7.587"/>
			</g>
			<g>
				
					<rect x="369.367" y="219.157" transform="matrix(6.123234e-17 -1 1 6.123234e-17 156.0462 603.1141)" style="fill:#1A1A1A;" width="20.426" height="8.754"/>
				<circle style="fill:#E8A034;" cx="378.705" cy="234.33" r="7.587"/>
			</g>
			<g>
				
					<rect x="392.127" y="218.573" transform="matrix(6.123234e-17 -1 1 6.123234e-17 179.3899 625.2906)" style="fill:#1A1A1A;" width="20.426" height="8.754"/>
				
					<ellipse transform="matrix(0.9871 -0.1598 0.1598 0.9871 -32.1946 67.1602)" style="fill:#E8A034;" cx="401.465" cy="233.747" rx="7.587" ry="7.587"/>
			</g>
		</g>
		<path style="fill:#E8A034;" d="M389.306,176.952h-71.417c-6.6,0-12-5.4-12-12v-31.829c0-6.6,5.4-12,12-12h71.417
			c6.6,0,12,5.4,12,12v31.829C401.306,171.552,395.906,176.952,389.306,176.952z"/>
		
			<text transform="matrix(1 0 0 1 317.0527 161.292)" style="fill:#3C4145; font-family:'BungeeLayers-Regular'; font-size:34.9044px; letter-spacing:1;">cpu</text>
		
			<polyline style="fill:none;stroke:#E8D7BE;stroke-width:3.0452;stroke-linecap:round;stroke-linejoin:round;stroke-miterlimit:10;" points="
			309.442,113.51 352.075,113.51 352.075,103.359 		"/>
		<path style="fill:#E8D7BE;" d="M352.201,105.389h-1.266c-2.164,0-3.935-1.771-3.935-3.935v-1.266c0-2.164,1.771-3.935,3.935-3.935
			h1.266c2.164,0,3.935,1.771,3.935,3.935v1.266C356.136,103.619,354.365,105.389,352.201,105.389z"/>
		<path style="fill:#E8D7BE;" d="M308.045,118.078h-1.266c-2.164,0-3.935-1.771-3.935-3.935v-1.266c0-2.164,1.771-3.935,3.935-3.935
			h1.266c2.164,0,3.935,1.771,3.935,3.935v1.266C311.98,116.307,310.209,118.078,308.045,118.078z"/>
		
			<polyline style="fill:none;stroke:#E8D7BE;stroke-width:3.0452;stroke-linecap:round;stroke-linejoin:round;stroke-miterlimit:10;" points="
			395.216,182.028 352.583,182.028 352.583,192.178 		"/>
		<path style="fill:#E8D7BE;" d="M352.457,190.148h1.266c2.164,0,3.935,1.771,3.935,3.935v1.266c0,2.164-1.771,3.935-3.935,3.935
			h-1.266c-2.164,0-3.935-1.771-3.935-3.935v-1.266C348.523,191.919,350.293,190.148,352.457,190.148z"/>
		<path style="fill:#E8D7BE;" d="M396.613,177.46h1.266c2.164,0,3.935,1.771,3.935,3.935v1.266c0,2.164-1.771,3.935-3.935,3.935
			h-1.266c-2.164,0-3.935-1.771-3.935-3.935v-1.266C392.678,179.23,394.449,177.46,396.613,177.46z"/>
	</g>
	
		<polyline style="fill:none;stroke:#3C4145;stroke-width:3.0452;stroke-linecap:round;stroke-linejoin:round;stroke-miterlimit:10;" points="
		144.492,284.55 144.492,329.214 165.809,347.485 165.809,369.817 	"/>
	<path style="fill:#E8A034;stroke:#3D3D3D;stroke-width:3.9982;stroke-miterlimit:10;" d="M172.362,374.799
		c0,3.312-2.685,5.997-5.997,5.997c-3.312,0-5.997-2.685-5.997-5.997c0-3.312,2.685-5.997,5.997-5.997
		C169.677,368.802,172.362,371.487,172.362,374.799z"/>
	
		<polyline style="fill:none;stroke:#3D3D3D;stroke-width:3.9982;stroke-linecap:round;stroke-linejoin:round;stroke-miterlimit:10;" points="
		150.583,402.299 151.598,363.726 128.251,339.364 128.251,313.987 	"/>
	
		<polyline style="fill:none;stroke:#3D3D3D;stroke-width:3.9982;stroke-linecap:round;stroke-linejoin:round;stroke-miterlimit:10;" points="
		133.327,403.314 134.342,364.741 110.995,340.379 110.995,315.003 	"/>
	
		<polyline style="fill:none;stroke:#3D3D3D;stroke-width:3.9982;stroke-linecap:round;stroke-linejoin:round;stroke-miterlimit:10;" points="
		115.055,403.314 116.07,364.741 92.724,340.379 92.724,315.003 	"/>
	<path style="fill:#E8A034;stroke:#3D3D3D;stroke-width:3.9982;stroke-miterlimit:10;" d="M135.819,316.94
		c0,3.312-2.685,5.997-5.997,5.997c-3.312,0-5.997-2.685-5.997-5.997c0-3.312,2.685-5.997,5.997-5.997
		C133.134,310.942,135.819,313.627,135.819,316.94z"/>
	<path style="fill:#E8A034;stroke:#3D3D3D;stroke-width:3.9982;stroke-miterlimit:10;" d="M99.277,306.789
		c0,3.312-2.685,5.997-5.997,5.997c-3.312,0-5.997-2.685-5.997-5.997c0-3.312,2.685-5.997,5.997-5.997
		C96.591,300.792,99.277,303.477,99.277,306.789z"/>
	<path style="fill:#E8A034;stroke:#3D3D3D;stroke-width:3.9982;stroke-miterlimit:10;" d="M117.548,310.849
		c0,3.312-2.685,5.997-5.997,5.997c-3.312,0-5.997-2.685-5.997-5.997s2.685-5.997,5.997-5.997
		C114.863,304.852,117.548,307.537,117.548,310.849z"/>
	
		<polyline style="fill:none;stroke:#3D3D3D;stroke-width:3.9982;stroke-linecap:round;stroke-linejoin:round;stroke-miterlimit:10;" points="
		155.658,287.257 155.658,317.033 179.005,334.289 	"/>
	<path style="fill:#E8A034;stroke:#3D3D3D;stroke-width:3.9982;stroke-miterlimit:10;" d="M183.528,335.211
		c0,3.312-2.685,5.997-5.997,5.997c-3.312,0-5.997-2.685-5.997-5.997s2.685-5.997,5.997-5.997
		C180.843,329.214,183.528,331.899,183.528,335.211z"/>
	<g>
		<path style="fill:#1A1A1A;" d="M296.595,417.072h111.977c6.6,0,12-5.4,12-12V293.095c0-6.6-5.4-12-12-12H296.595
			c-6.6,0-12,5.4-12,12v111.977C284.595,411.672,289.995,417.072,296.595,417.072z"/>
		<path style="fill:#E8A034;" d="M306.516,407.151h92.135c6.6,0,12-5.4,12-12v-92.135c0-6.6-5.4-12-12-12h-92.135
			c-6.6,0-12,5.4-12,12v92.135C294.516,401.751,299.916,407.151,306.516,407.151z"/>
		<g>
			
				<rect x="417.653" y="358.713" transform="matrix(-1 -1.224647e-16 1.224647e-16 -1 855.7323 726.1795)" style="fill:#1A1A1A;" width="20.426" height="8.754"/>
			
				<ellipse transform="matrix(0.9731 -0.2305 0.2305 0.9731 -72.0825 110.9138)" style="fill:#E8C48E;" cx="438.663" cy="363.965" rx="7.587" ry="7.587"/>
		</g>
		<g>
			
				<rect x="418.237" y="333.618" transform="matrix(-1 -1.224647e-16 1.224647e-16 -1 856.8994 675.9907)" style="fill:#1A1A1A;" width="20.426" height="8.754"/>
			
				<ellipse transform="matrix(0.9731 -0.2305 0.2305 0.9731 -66.2824 110.3726)" style="fill:#E8C48E;" cx="439.246" cy="338.871" rx="7.587" ry="7.587"/>
		</g>
		<g>
			
				<rect x="419.404" y="309.691" transform="matrix(-1 -1.224647e-16 1.224647e-16 -1 859.2338 628.1363)" style="fill:#1A1A1A;" width="20.426" height="8.754"/>
			
				<ellipse transform="matrix(0.298 -0.9546 0.9546 0.298 8.5362 641.4943)" style="fill:#E8C48E;" cx="440.413" cy="314.944" rx="7.587" ry="7.587"/>
		</g>
		<g>
			
				<rect x="418.82" y="286.931" transform="matrix(-1 -1.224647e-16 1.224647e-16 -1 858.0666 582.6162)" style="fill:#1A1A1A;" width="20.426" height="8.754"/>
			<circle style="fill:#E8C48E;" cx="439.83" cy="292.184" r="7.587"/>
		</g>
		<g>
			<rect x="267.671" y="386.725" style="fill:#1A1A1A;" width="20.426" height="8.754"/>
			<circle style="fill:#E8C48E;" cx="267.087" cy="391.978" r="7.587"/>
		</g>
		<g>
			<rect x="267.087" y="359.88" style="fill:#1A1A1A;" width="20.426" height="8.754"/>
			
				<ellipse transform="matrix(0.9327 -0.3607 0.3607 0.9327 -113.7649 120.7111)" style="fill:#E8C48E;" cx="266.503" cy="365.132" rx="7.587" ry="7.587"/>
		</g>
		<g>
			<rect x="266.503" y="334.786" style="fill:#1A1A1A;" width="20.426" height="8.754"/>
			
				<ellipse transform="matrix(0.8843 -0.4669 0.4669 0.8843 -128.0075 163.5147)" style="fill:#E8C48E;" cx="265.92" cy="340.038" rx="7.587" ry="7.587"/>
		</g>
		<g>
			<rect x="265.336" y="310.858" style="fill:#1A1A1A;" width="20.426" height="8.754"/>
			<circle style="fill:#E8C48E;" cx="264.753" cy="316.111" r="7.587"/>
		</g>
		<g>
			<rect x="265.92" y="288.098" style="fill:#1A1A1A;" width="20.426" height="8.754"/>
			<circle style="fill:#E8C48E;" cx="265.336" cy="293.351" r="7.587"/>
		</g>
		<g>
			
				<rect x="293.932" y="269.423" transform="matrix(-1.836970e-16 1 -1 -1.836970e-16 577.9453 -30.3445)" style="fill:#1A1A1A;" width="20.426" height="8.754"/>
			<circle style="fill:#E8C48E;" cx="303.27" cy="263.004" r="7.587"/>
		</g>
		<g>
			
				<rect x="320.777" y="268.84" transform="matrix(-1.836970e-16 1 -1 -1.836970e-16 604.2068 -57.7732)" style="fill:#1A1A1A;" width="20.426" height="8.754"/>
			
				<ellipse transform="matrix(0.9957 -0.0929 0.0929 0.9957 -22.948 31.7975)" style="fill:#E8C48E;" cx="330.115" cy="262.42" rx="7.587" ry="7.587"/>
		</g>
		<g>
			
				<rect x="345.872" y="268.256" transform="matrix(-1.836970e-16 1 -1 -1.836970e-16 628.7177 -83.4512)" style="fill:#1A1A1A;" width="20.426" height="8.754"/>
			<circle style="fill:#E8C48E;" cx="355.209" cy="261.837" r="7.587"/>
		</g>
		<g>
			
				<rect x="369.799" y="267.089" transform="matrix(-1.836970e-16 1 -1 -1.836970e-16 651.4777 -108.5456)" style="fill:#1A1A1A;" width="20.426" height="8.754"/>
			<circle style="fill:#E8C48E;" cx="379.136" cy="260.67" r="7.587"/>
		</g>
		<g>
			
				<rect x="392.559" y="267.673" transform="matrix(-1.836970e-16 1 -1 -1.836970e-16 674.8214 -130.7221)" style="fill:#1A1A1A;" width="20.426" height="8.754"/>
			<path style="fill:#E8C48E;" d="M401.896,268.84c-4.19,0-7.587-3.397-7.587-7.587s3.397-7.587,7.587-7.587
				c4.19,0,7.587,3.397,7.587,7.587S406.086,268.84,401.896,268.84z"/>
		</g>
		<g>
			
				<rect x="390.224" y="418.823" transform="matrix(6.123234e-17 -1 1 6.123234e-17 -22.7623 823.637)" style="fill:#1A1A1A;" width="20.426" height="8.754"/>
			
				<ellipse transform="matrix(0.7071 -0.7071 0.7071 0.7071 -189.3398 410.8854)" style="fill:#E8C48E;" cx="401.313" cy="433.996" rx="7.587" ry="7.587"/>
		</g>
		<g>
			
				<rect x="363.379" y="419.406" transform="matrix(6.123234e-17 -1 1 6.123234e-17 -50.191 797.3754)" style="fill:#1A1A1A;" width="20.426" height="8.754"/>
			<circle style="fill:#E8C48E;" cx="374.468" cy="434.58" r="7.587"/>
		</g>
		<g>
			
				<rect x="338.285" y="419.99" transform="matrix(6.123234e-17 -1 1 6.123234e-17 -75.869 772.8646)" style="fill:#1A1A1A;" width="20.426" height="8.754"/>
			<circle style="fill:#E8C48E;" cx="349.373" cy="435.163" r="7.587"/>
		</g>
		<g>
			
				<rect x="314.358" y="421.157" transform="matrix(6.123234e-17 -1 1 6.123234e-17 -100.9634 750.1045)" style="fill:#1A1A1A;" width="20.426" height="8.754"/>
			<path style="fill:#E8C48E;" d="M325.446,428.744c4.19,0,7.587,3.397,7.587,7.587c0,4.19-3.397,7.587-7.587,7.587
				c-4.19,0-7.587-3.397-7.587-7.587C317.859,432.14,321.256,428.744,325.446,428.744z"/>
		</g>
		<g>
			
				<rect x="291.598" y="420.573" transform="matrix(6.123234e-17 -1 1 6.123234e-17 -123.1398 726.7609)" style="fill:#1A1A1A;" width="20.426" height="8.754"/>
			<circle style="fill:#E8C48E;" cx="302.686" cy="435.747" r="7.587"/>
		</g>
	</g>
	<rect x="302.844" y="300.792" style="fill:#1A1A1A;" width="97.447" height="97.447"/>
	
		<text transform="matrix(1 0 0 1 313.917 369.291)" style="fill:#FFFCFF; font-family:'BungeeLayers-Regular'; font-size:19.4549px; letter-spacing:1;">MICRO</text>
	<polyline style="fill:none;stroke:#E8A034;stroke-width:2.3266;stroke-miterlimit:10;" points="402.322,306.882 372.995,306.882 
		372.995,341.581 355.398,341.581 	"/>
	<polyline style="fill:none;stroke:#E8A034;stroke-width:2.0301;stroke-miterlimit:10;" points="401.148,332.48 387.434,332.48 
		387.434,349.891 377.513,349.891 	"/>
	<polyline style="fill:none;stroke:#E8A034;stroke-width:2.0301;stroke-miterlimit:10;" points="401.44,323.198 385.099,323.198 
		385.099,311.526 	"/>
	<path style="fill:#E8A034;" d="M360.703,341.902c0,2.523-2.045,4.568-4.568,4.568c-2.523,0-4.568-2.045-4.568-4.568
		c0-2.523,2.045-4.568,4.568-4.568C358.658,337.334,360.703,339.379,360.703,341.902z"/>
	<path style="fill:#E8A034;" d="M379.99,349.008c0,1.402-1.136,2.538-2.538,2.538c-1.402,0-2.538-1.136-2.538-2.538
		c0-1.402,1.136-2.538,2.538-2.538C378.854,346.47,379.99,347.606,379.99,349.008z"/>
	<path style="fill:#E8A034;" d="M389.126,312.972c0,1.682-1.363,3.045-3.045,3.045s-3.045-1.363-3.045-3.045
		c0-1.682,1.363-3.045,3.045-3.045S389.126,311.29,389.126,312.972z"/>
	<path style="fill:#E8A034;" d="M341.417,336.319c0,1.682-1.363,3.045-3.045,3.045c-1.682,0-3.045-1.363-3.045-3.045
		s1.363-3.045,3.045-3.045C340.054,333.274,341.417,334.637,341.417,336.319z"/>
	<path style="fill:none;stroke:#E8A034;stroke-width:2.3266;stroke-miterlimit:10;" d="M299.799,317.033
		c1.015-1.015,38.573,0,38.573,0v18.271"/>
	
		<line style="fill:none;stroke:#E8A034;stroke-width:2.3266;stroke-miterlimit:10;" x1="300.814" y1="307.897" x2="352.583" y2="307.897"/>
	<path style="fill:#E8A034;" d="M357.658,308.405c0,2.523-2.045,4.568-4.568,4.568c-2.523,0-4.568-2.045-4.568-4.568
		c0-2.523,2.045-4.568,4.568-4.568C355.613,303.837,357.658,305.882,357.658,308.405z"/>
	<polyline style="fill:none;stroke:#E8A034;stroke-width:2.3266;stroke-miterlimit:10;" points="301.829,330.229 301.829,330.229 
		320.1,330.229 320.1,348.5 332.281,348.5 	"/>
	<circle style="fill:#E8A034;" cx="335.327" cy="347.485" r="4.06"/>
	<polyline style="fill:none;stroke:#E8A034;stroke-width:2.3266;stroke-miterlimit:10;" points="299.799,378.952 328.221,378.952 
		328.221,387.073 	"/>
	<path style="fill:#E8A034;" d="M332.281,388.595c0,1.962-1.591,3.553-3.553,3.553c-1.962,0-3.553-1.591-3.553-3.553
		c0-1.962,1.591-3.553,3.553-3.553C330.691,385.043,332.281,386.633,332.281,388.595z"/>
	<polyline style="fill:none;stroke:#E8A034;stroke-width:2.3266;stroke-miterlimit:10;" points="400.799,391.133 384.05,391.133 
		384.05,376.922 363.749,376.922 	"/>
	<circle style="fill:#E8A034;" cx="361.719" cy="377.937" r="4.06"/>
</g>
<g id="DESIGNED_BY_FREEPIK">
	<g>
		<g id="XMLID_29_">
			<g id="XMLID_48_">
				<path id="XMLID_56_" style="fill:#FFFFFF;" d="M254.934,464.928c-0.432,0.443-0.803,0.931-1.108,1.453l-0.465-0.241
					c-0.067-0.298-0.349-0.503-0.659-0.466c-0.331,0.039-0.568,0.339-0.529,0.67c0.039,0.331,0.339,0.568,0.67,0.529
					c0.065-0.008,0.127-0.026,0.184-0.052l0.451,0.234c-0.251,0.554-0.433,1.139-0.539,1.744l0.746,0.132
					c0.23-1.306,0.85-2.507,1.792-3.473L254.934,464.928z"/>
				<path id="XMLID_55_" style="fill:#FFFFFF;" d="M260.421,462.626c-0.171,0-0.341,0.006-0.51,0.017l-0.074-0.626
					c0.188-0.149,0.296-0.389,0.266-0.645c-0.046-0.393-0.402-0.674-0.795-0.628s-0.674,0.402-0.628,0.795
					c0.03,0.254,0.189,0.461,0.405,0.564l0.073,0.624c-0.714,0.116-1.403,0.332-2.06,0.646l0.327,0.684
					c0.934-0.447,1.942-0.673,2.995-0.673c0.496,0,0.993,0.053,1.475,0.158l0.161-0.741
					C261.522,462.685,260.972,462.626,260.421,462.626z"/>
				<path id="XMLID_54_" style="fill:#FFFFFF;" d="M267.024,465.173c0.331-0.04,0.566-0.341,0.525-0.672
					c-0.04-0.331-0.341-0.566-0.672-0.526c-0.309,0.038-0.535,0.304-0.53,0.609l-0.416,0.363c-0.418-0.43-0.89-0.813-1.408-1.139
					l-0.404,0.641c1.134,0.715,2.021,1.726,2.563,2.925l0.69-0.313c-0.251-0.554-0.568-1.072-0.942-1.545l0.402-0.351
					C266.895,465.178,266.958,465.181,267.024,465.173z"/>
				<path id="XMLID_53_" style="fill:#FFFFFF;" d="M259.874,472.834c-0.386,0.023-0.775,0.035-1.157,0.035
					c-0.88,0-1.733-0.061-2.478-0.179c-0.39-0.062-0.846-0.155-1.27-0.292c1.046,1.861,3.069,3.125,5.388,3.125
					c2.856,0,5.262-1.916,5.95-4.504c-0.682,0.449-1.505,0.825-2.459,1.123C262.668,472.509,261.293,472.749,259.874,472.834z"/>
				<path id="XMLID_49_" style="fill:#FFFFFF;" d="M260.421,464.142c-3.352,0-6.08,2.666-6.08,5.943
					c0,0.426,0.046,0.849,0.137,1.261c0.673,0.483,2.706,0.89,5.347,0.731c2.879-0.173,5.297-0.957,6.672-2.159
					c-0.005-0.195-0.021-0.39-0.045-0.582C266.073,466.375,263.48,464.142,260.421,464.142z M258.262,470.657
					c-1.02,0-1.85-0.83-1.85-1.85c0-1.02,0.83-1.85,1.85-1.85c1.02,0,1.85,0.83,1.85,1.85
					C260.112,469.827,259.282,470.657,258.262,470.657z M262.999,469.749c-0.75,0-1.36-0.61-1.36-1.36s0.61-1.361,1.36-1.361
					c0.75,0,1.361,0.61,1.361,1.361S263.75,469.749,262.999,469.749z"/>
			</g>
			<path id="XMLID_46_" style="fill:#FFFFFF;" d="M276.425,466.009c-0.295-0.116-0.806-0.309-1.382-0.237
				c-0.551,0.069-0.844,0.341-0.844,1.007v0.866h2.228v1.717h-2.228v5.455h-1.932v-5.455h-1.34v-1.717h1.34v-0.888
				c0-1.68,0.895-2.783,2.568-2.783c0.642,0,1.157,0.122,1.59,0.308L276.425,466.009z"/>
			<path id="XMLID_44_" style="fill:#FFFFFF;" d="M281.128,469.341c-0.177-0.03-0.358-0.046-0.526-0.046
				c-0.896,0-1.51,0.548-1.51,1.613v3.908h-1.932v-7.172h1.873v0.785c0.451-0.673,1.14-0.977,2.021-0.977
				c0.414,0,0.848,0.128,1.094,0.337L281.128,469.341z"/>
			<path id="XMLID_41_" style="fill:#FFFFFF;" d="M288.795,471.219c0,0.222-0.015,0.489-0.037,0.651h-5.085
				c0.207,1.036,0.933,1.488,1.843,1.488c0.622,0,1.295-0.252,1.813-0.688l1.133,1.243c-0.814,0.748-1.85,1.088-3.057,1.088
				c-2.198,0-3.723-1.495-3.723-3.753c0-2.258,1.48-3.797,3.626-3.797C287.374,467.452,288.787,468.984,288.795,471.219z
				 M283.68,470.553h3.175c-0.177-0.918-0.733-1.436-1.562-1.436C284.383,469.117,283.851,469.665,283.68,470.553z"/>
			<path id="XMLID_38_" style="fill:#FFFFFF;" d="M296.448,471.219c0,0.222-0.015,0.489-0.037,0.651h-5.085
				c0.207,1.036,0.932,1.488,1.843,1.488c0.622,0,1.295-0.252,1.813-0.688l1.132,1.243c-0.814,0.748-1.85,1.088-3.057,1.088
				c-2.198,0-3.723-1.495-3.723-3.753c0-2.258,1.48-3.797,3.627-3.797C295.027,467.452,296.441,468.984,296.448,471.219z
				 M291.334,470.553h3.175c-0.178-0.918-0.733-1.436-1.562-1.436C292.037,469.117,291.504,469.665,291.334,470.553z"/>
			<path id="XMLID_35_" style="fill:#FFFFFF;" d="M304.794,471.227c0,2.154-1.495,3.775-3.471,3.775
				c-0.962,0-1.643-0.378-2.109-0.933v3.708h-1.924v-10.133h1.887v0.792c0.466-0.585,1.155-0.984,2.139-0.984
				C303.299,467.452,304.794,469.073,304.794,471.227z M299.117,471.227c0,1.132,0.747,1.976,1.843,1.976
				c1.14,0,1.85-0.881,1.85-1.976c0-1.095-0.711-1.976-1.85-1.976C299.864,469.25,299.117,470.094,299.117,471.227z"/>
			<path id="XMLID_32_" style="fill:#FFFFFF;" d="M307.897,465.298c0,0.696-0.54,1.229-1.236,1.229
				c-0.696,0-1.229-0.533-1.229-1.229c0-0.696,0.533-1.243,1.229-1.243C307.357,464.055,307.897,464.602,307.897,465.298z
				 M307.638,474.816h-1.932v-7.172h1.932V474.816z"/>
			<path id="XMLID_30_" style="fill:#FFFFFF;" d="M310.862,470.198l2.702-2.554h2.368l-3.479,3.375l3.501,3.797h-2.376l-2.716-2.901
				v2.901h-1.932v-10.658h1.932V470.198z"/>
		</g>
		<g>
			<path style="fill:#FFFFFF;" d="M179.242,474.751v-1.055c-0.527,0.718-1.391,1.23-2.388,1.23c-1.846,0-3.149-1.406-3.149-3.706
				c0-2.256,1.289-3.721,3.149-3.721c0.952,0,1.816,0.469,2.388,1.245v-3.765h1.099v9.77H179.242z M179.242,472.832v-3.208
				c-0.395-0.615-1.245-1.143-2.124-1.143c-1.421,0-2.27,1.172-2.27,2.739c0,1.567,0.85,2.724,2.27,2.724
				C177.997,473.946,178.847,473.448,179.242,472.832z"/>
			<path style="fill:#FFFFFF;" d="M181.761,471.207c0-2.051,1.465-3.706,3.486-3.706c2.139,0,3.398,1.67,3.398,3.794v0.279h-5.727
				c0.088,1.333,1.025,2.446,2.549,2.446c0.805,0,1.626-0.322,2.182-0.894l0.527,0.718c-0.703,0.703-1.655,1.084-2.812,1.084
				C183.27,474.927,181.761,473.418,181.761,471.207z M185.233,468.409c-1.509,0-2.256,1.274-2.314,2.358h4.643
				C187.547,469.712,186.844,468.409,185.233,468.409z"/>
			<path style="fill:#FFFFFF;" d="M189.437,473.814l0.571-0.791c0.469,0.542,1.362,1.011,2.329,1.011c1.084,0,1.67-0.513,1.67-1.216
				c0-1.714-4.38-0.659-4.38-3.281c0-1.098,0.952-2.036,2.636-2.036c1.201,0,2.051,0.454,2.622,1.026l-0.513,0.762
				c-0.424-0.513-1.201-0.894-2.109-0.894c-0.967,0-1.567,0.483-1.567,1.113c0,1.552,4.38,0.527,4.38,3.281
				c0,1.187-0.952,2.138-2.783,2.138C191.136,474.927,190.154,474.576,189.437,473.814z"/>
			<path style="fill:#FFFFFF;" d="M196.307,465.933c0-0.41,0.337-0.747,0.732-0.747c0.41,0,0.747,0.337,0.747,0.747
				c0,0.41-0.337,0.732-0.747,0.732C196.643,466.666,196.307,466.344,196.307,465.933z M196.497,474.751v-7.075h1.099v7.075H196.497
				z"/>
			<path style="fill:#FFFFFF;" d="M199.412,476.568l0.556-0.82c0.586,0.703,1.289,0.967,2.3,0.967c1.172,0,2.27-0.571,2.27-2.124
				v-1.011c-0.513,0.718-1.377,1.26-2.373,1.26c-1.845,0-3.149-1.377-3.149-3.662c0-2.27,1.289-3.676,3.149-3.676
				c0.952,0,1.802,0.469,2.373,1.245v-1.069h1.099v6.87c0,2.344-1.641,3.076-3.369,3.076
				C201.067,477.622,200.246,477.388,199.412,476.568z M204.538,472.715v-3.091c-0.381-0.615-1.23-1.143-2.109-1.143
				c-1.421,0-2.27,1.128-2.27,2.695c0,1.553,0.849,2.695,2.27,2.695C203.308,473.872,204.157,473.331,204.538,472.715z"/>
			<path style="fill:#FFFFFF;" d="M212.243,474.751v-4.629c0-1.245-0.63-1.641-1.582-1.641c-0.865,0-1.685,0.527-2.095,1.099v5.17
				h-1.099v-7.075h1.099v1.025c0.498-0.586,1.464-1.201,2.519-1.201c1.48,0,2.256,0.747,2.256,2.285v4.966H212.243z"/>
			<path style="fill:#FFFFFF;" d="M214.762,471.207c0-2.051,1.465-3.706,3.486-3.706c2.138,0,3.398,1.67,3.398,3.794v0.279h-5.727
				c0.088,1.333,1.025,2.446,2.549,2.446c0.806,0,1.626-0.322,2.183-0.894l0.527,0.718c-0.703,0.703-1.655,1.084-2.812,1.084
				C216.271,474.927,214.762,473.418,214.762,471.207z M218.234,468.409c-1.509,0-2.256,1.274-2.314,2.358h4.643
				C220.548,469.712,219.845,468.409,218.234,468.409z"/>
			<path style="fill:#FFFFFF;" d="M228.18,474.751v-1.055c-0.527,0.718-1.392,1.23-2.388,1.23c-1.845,0-3.149-1.406-3.149-3.706
				c0-2.256,1.289-3.721,3.149-3.721c0.952,0,1.817,0.469,2.388,1.245v-3.765h1.098v9.77H228.18z M228.18,472.832v-3.208
				c-0.396-0.615-1.245-1.143-2.124-1.143c-1.421,0-2.27,1.172-2.27,2.739c0,1.567,0.849,2.724,2.27,2.724
				C226.934,473.946,227.784,473.448,228.18,472.832z"/>
			<path style="fill:#FFFFFF;" d="M234.522,474.751v-9.77h1.098v3.765c0.572-0.776,1.421-1.245,2.388-1.245
				c1.845,0,3.149,1.465,3.149,3.721c0,2.299-1.304,3.706-3.149,3.706c-0.996,0-1.86-0.513-2.388-1.23v1.055H234.522z
				 M237.729,473.946c1.436,0,2.286-1.157,2.286-2.724c0-1.568-0.85-2.739-2.286-2.739c-0.864,0-1.728,0.527-2.109,1.143v3.208
				C236.001,473.448,236.865,473.946,237.729,473.946z"/>
			<path style="fill:#FFFFFF;" d="M242.358,476.524c0.161,0.073,0.425,0.117,0.601,0.117c0.483,0,0.806-0.161,1.055-0.747
				l0.469-1.069l-2.959-7.148h1.187l2.358,5.8l2.344-5.8h1.201l-3.545,8.51c-0.425,1.025-1.143,1.421-2.08,1.435
				c-0.234,0-0.601-0.044-0.805-0.103L242.358,476.524z"/>
		</g>
	</g>
</g>
</svg>
